<svg xmlns="http://www.w3.org/2000/svg" width="630" height="372" viewBox="0 0 630 372"><rect width="100%" height="100%" fill="#DDDDDD"/><path fill="#999999" d="m164.175 155.635-18.02 22.05-2.1 2.6q1.77-.88 3.8-1.36 2.04-.49 4.39-.49 3.45 0 6.7 1.14 3.26 1.13 5.73 3.42 2.48 2.29 3.99 5.69 1.52 3.4 1.52 7.94 0 4.24-1.56 7.96-1.55 3.72-4.37 6.49-2.81 2.77-6.78 4.37-3.97 1.59-8.76 1.59-4.87 0-8.73-1.55-3.87-1.56-6.6-4.35t-4.18-6.72q-1.44-3.93-1.44-8.71 0-4.29 1.74-8.8 1.74-4.52 5.4-9.39l14.49-19.45q.75-1 2.2-1.72 1.45-.71 3.34-.71zm-15.67 52.92q2.48 0 4.56-.84t3.57-2.35q1.49-1.52 2.33-3.55.84-2.04.84-4.43 0-2.61-.8-4.69-.79-2.08-2.26-3.53-1.47-1.44-3.53-2.2t-4.54-.76-4.49.84q-2.02.84-3.45 2.33-1.42 1.5-2.22 3.53-.8 2.04-.8 4.39 0 2.52.69 4.6.7 2.08 2.06 3.55 1.37 1.47 3.38 2.29 2.02.82 4.66.82m34.44-35.03-5.46-.97q.63-4.36 2.44-7.66t4.51-5.5q2.71-2.21 6.22-3.32t7.54-1.11q4.2 0 7.58 1.19 3.38 1.2 5.78 3.32 2.39 2.12 3.67 4.98 1.28 2.85 1.28 6.17 0 2.9-.65 5.1-.65 2.21-1.87 3.85t-3.02 2.77q-1.81 1.13-4.08 1.89 5.46 1.72 8.15 5.25t2.69 8.86q0 4.54-1.68 8.02-1.68 3.49-4.54 5.86-2.85 2.38-6.61 3.59-3.76 1.22-7.96 1.22-4.58 0-7.98-1.05t-5.92-3.11q-2.52-2.05-4.29-5.04-1.76-2.98-3.02-6.88l4.58-1.89q1.8-.76 3.38-.4 1.57.35 2.29 1.7.75 1.47 1.66 2.9.9 1.42 2.16 2.54 1.26 1.11 2.96 1.8 1.7.7 4.05.7 2.65 0 4.62-.87 1.98-.86 3.3-2.24 1.32-1.39 1.97-3.09.66-1.7.66-3.42 0-2.19-.47-3.97-.46-1.79-1.93-3.05t-4.22-1.97-7.37-.71v-7.4q3.82-.04 6.34-.71t4.01-1.87 2.08-2.88.59-3.69q0-4.29-2.39-6.51-2.4-2.23-6.39-2.23-1.85 0-3.4.53-1.55.52-2.79 1.47-1.24.94-2.08 2.2t-1.26 2.77q-.72 1.94-1.87 2.57-1.16.63-3.26.29m85.35 12.47q0 7.94-1.7 13.8t-4.71 9.68q-3 3.82-7.1 5.69-4.09 1.87-8.84 1.87-4.74 0-8.8-1.87-4.05-1.87-7.03-5.69t-4.66-9.68-1.68-13.8q0-7.98 1.68-13.81 1.68-5.84 4.66-9.66 2.98-3.83 7.03-5.7 4.06-1.86 8.8-1.86 4.75 0 8.84 1.86 4.1 1.87 7.1 5.7 3.01 3.82 4.71 9.66 1.7 5.83 1.7 13.81m-10.71 0q0-6.59-.97-10.92-.96-4.32-2.58-6.88-1.62-2.57-3.72-3.6-2.1-1.02-4.37-1.02-2.22 0-4.3 1.02-2.08 1.03-3.68 3.6-1.59 2.56-2.54 6.88-.94 4.33-.94 10.92 0 6.6.94 10.92.95 4.33 2.54 6.89 1.6 2.56 3.68 3.59t4.3 1.03q2.27 0 4.37-1.03t3.72-3.59 2.58-6.89q.97-4.32.97-10.92m77.4 16.47-5.5 5.42-14.24-14.24-14.36 14.32-5.5-5.42 14.36-14.4-13.69-13.7 5.46-5.46 13.69 13.7 13.61-13.61 5.54 5.46-13.65 13.65zm34.95-28.94-5.46-.97q.63-4.36 2.43-7.66 1.81-3.3 4.52-5.5 2.71-2.21 6.21-3.32 3.51-1.11 7.54-1.11 4.2 0 7.58 1.19 3.39 1.2 5.78 3.32t3.67 4.98q1.29 2.85 1.29 6.17 0 2.9-.66 5.1-.65 2.21-1.86 3.85-1.22 1.64-3.03 2.77-1.8 1.13-4.07 1.89 5.46 1.72 8.15 5.25 2.68 3.53 2.68 8.86 0 4.54-1.68 8.02-1.68 3.49-4.53 5.86-2.86 2.38-6.62 3.59-3.76 1.22-7.96 1.22-4.57 0-7.98-1.05-3.4-1.05-5.92-3.11-2.52-2.05-4.28-5.04-1.77-2.98-3.03-6.88l4.58-1.89q1.81-.76 3.38-.4 1.58.35 2.29 1.7.76 1.47 1.66 2.9.9 1.42 2.16 2.54 1.26 1.11 2.96 1.8 1.71.7 4.06.7 2.64 0 4.62-.87 1.97-.86 3.29-2.24 1.33-1.39 1.98-3.09t.65-3.42q0-2.19-.46-3.97-.46-1.79-1.93-3.05t-4.23-1.97q-2.75-.71-7.37-.71v-7.4q3.83-.04 6.35-.71t4.01-1.87 2.08-2.88q.58-1.68.58-3.69 0-4.29-2.39-6.51-2.39-2.23-6.38-2.23-1.85 0-3.41.53-1.55.52-2.79 1.47-1.24.94-2.08 2.2t-1.26 2.77q-.71 1.94-1.87 2.57-1.15.63-3.25.29m42.63-17.89h41.96v4.49q0 2.02-.42 3.26t-.84 2.08l-23.02 47.37q-.71 1.47-2.02 2.5-1.3 1.03-3.48 1.03h-7.52l23.48-46.41q.8-1.43 1.57-2.63.78-1.19 1.75-2.28h-29.07q-.96 0-1.68-.72-.71-.71-.71-1.68zm70.43 51.07h15.58q1.68 0 2.67.95.99.94.99 2.49v6.22h-41.67v-3.44q0-1.05.44-2.21.45-1.15 1.41-2.08l18.44-18.48q2.31-2.35 4.14-4.49 1.82-2.14 3.04-4.24t1.87-4.27q.65-2.16.65-4.55 0-2.19-.63-3.85t-1.78-2.79q-1.16-1.13-2.78-1.7-1.61-.57-3.63-.57-1.85 0-3.42.53-1.58.52-2.79 1.47-1.22.94-2.06 2.2t-1.26 2.77q-.72 1.94-1.85 2.57t-3.28.29l-5.46-.97q.63-4.36 2.44-7.66t4.52-5.5q2.7-2.21 6.21-3.32t7.54-1.11q4.2 0 7.69 1.23 3.48 1.24 5.96 3.51t3.86 5.46q1.39 3.19 1.39 7.1 0 3.36-.99 6.22-.98 2.85-2.64 5.46-1.66 2.6-3.89 5.04-2.22 2.43-4.66 4.95l-13.69 13.99q1.97-.59 3.92-.91 1.96-.31 3.72-.31"/></svg>