<svg width="33" height="40" viewBox="0 0 33 40" fill="none" xmlns="http://www.w3.org/2000/svg">
<path d="M33 16.5441C29.7559 16.5512 26.5917 15.52 23.9545 13.5963V27.0076C23.9537 29.4915 23.2082 31.9159 21.8177 33.9566C20.4271 35.9973 18.4578 37.557 16.1731 38.4272C13.8885 39.2973 11.3974 39.4364 9.03296 38.8258C6.66857 38.2152 4.54361 36.8841 2.9423 35.0104C1.34098 33.1367 0.339645 30.8099 0.0722129 28.341C-0.195219 25.8721 0.284002 23.379 1.44578 21.195C2.60756 19.0109 4.39652 17.2402 6.57338 16.1195C8.75025 14.9989 11.2112 14.5818 13.6272 14.9239V21.6671C12.5225 21.313 11.3362 21.3233 10.2376 21.6967C9.139 22.0701 8.18434 22.7873 7.50993 23.7461C6.83552 24.7048 6.47583 25.8561 6.48223 27.0354C6.48864 28.2147 6.8608 29.3618 7.54558 30.3129C8.23036 31.264 9.19274 31.9705 10.2953 32.3314C11.3979 32.6924 12.5843 32.6894 13.6851 32.3229C14.7859 31.9564 15.7448 31.245 16.425 30.2905C17.1051 29.3359 17.4717 28.187 17.4723 27.0076V0.800049H23.9545C23.9508 1.3583 23.9977 1.91571 24.0944 2.46521C24.3199 3.69008 24.7882 4.85528 25.4708 5.88959C26.1535 6.92391 27.0361 7.8056 28.0647 8.4808C29.5289 9.46553 31.2453 9.98985 33 9.98845V16.5441Z" fill="white"/>
</svg>
