<svg width="52" height="39" viewBox="0 0 52 39" fill="none" xmlns="http://www.w3.org/2000/svg">
<path d="M50.535 6.01C49.9443 3.64 48.21 1.78 46.0068 1.15C42.0131 0 26.0006 0 26.0006 0C26.0006 0 9.98808 0 5.99433 1.15C3.79121 1.78 2.05684 3.64 1.46621 6.01C0.397461 10.3 0.397461 19.24 0.397461 19.24C0.397461 19.24 0.397461 28.18 1.46621 32.47C2.05684 34.84 3.79121 36.62 5.99433 37.25C9.98808 38.4 26.0006 38.4 26.0006 38.4C26.0006 38.4 42.0131 38.4 46.0068 37.25C48.21 36.62 49.9443 34.83 50.535 32.47C51.6037 28.18 51.6037 19.24 51.6037 19.24C51.6037 19.24 51.6037 10.3 50.535 6.01ZM20.7693 27.36V11.12L34.1475 19.24L20.7693 27.36Z" fill="white"/>
</svg>
